<svg id="Layer_2" data-name="Layer 2" xmlns="http://www.w3.org/2000/svg" viewBox="0 0 247.7 36.8"><defs><style>.cls-1{fill:#f26921;}</style></defs><path class="cls-1" d="M22.14.41h1.69a.45.45,0,0,1,.52.51V35.77a.45.45,0,0,1-.52.51H22.14a.72.72,0,0,1-.61-.35L3,5.84c0-.1-.09-.14-.16-.12s-.1.07-.1.18V35.77a.45.45,0,0,1-.51.51H.52A.46.46,0,0,1,0,35.77V.92A.46.46,0,0,1,.52.41H2.26a.73.73,0,0,1,.61.36l18.5,30.08c0,.1.09.15.16.13s.1-.08.1-.18V.92A.45.45,0,0,1,22.14.41Z"/><path class="cls-1" d="M54.72,35.87l-2.21-6.81a.2.2,0,0,0-.2-.16h-16a.22.22,0,0,0-.21.16L34,35.87a.59.59,0,0,1-.61.41h-1.8c-.37,0-.51-.18-.41-.56L42.52.82a.6.6,0,0,1,.61-.41h2.31a.59.59,0,0,1,.61.41l11.43,34.9.05.21c0,.24-.15.35-.46.35H55.33A.58.58,0,0,1,54.72,35.87ZM37,26.57a.25.25,0,0,0,.18.08H51.49a.29.29,0,0,0,.18-.08.15.15,0,0,0,0-.18L44.47,4.1a.17.17,0,0,0-.16-.1.15.15,0,0,0-.15.1L36.93,26.39A.15.15,0,0,0,37,26.57Z"/><path class="cls-1" d="M68.88,35.87,57.55,1l0-.21c0-.24.16-.36.46-.36h1.8a.6.6,0,0,1,.61.41l9.94,31.26a.18.18,0,0,0,.16.11.16.16,0,0,0,.15-.11L80.67.82a.59.59,0,0,1,.61-.41H83c.38,0,.51.19.41.57L72,35.87a.6.6,0,0,1-.62.41h-1.9A.59.59,0,0,1,68.88,35.87Z"/><path class="cls-1" d="M111.67,2.82H92.25A.19.19,0,0,0,92,3V16.86a.19.19,0,0,0,.21.21H106a.46.46,0,0,1,.52.51V19a.46.46,0,0,1-.52.52H92.25c-.14,0-.21.06-.21.2v14a.19.19,0,0,0,.21.21h19.42a.45.45,0,0,1,.51.51v1.38a.45.45,0,0,1-.51.51H89.84a.45.45,0,0,1-.51-.51V.92a.45.45,0,0,1,.51-.51h21.83a.45.45,0,0,1,.51.51V2.31A.45.45,0,0,1,111.67,2.82Z"/><path class="cls-1" d="M116.41,36.11a.5.5,0,0,1,.08-.44l11-17.17a.25.25,0,0,0,0-.31L116.49,1a.76.76,0,0,1-.1-.31c0-.21.13-.31.41-.31h1.89a.75.75,0,0,1,.62.36L129,16a.21.21,0,0,0,.16.05.2.2,0,0,0,.15-.05L139,.77a.73.73,0,0,1,.61-.36h1.85c.2,0,.33.06.38.18a.5.5,0,0,1-.08.44L130.84,18.25a.39.39,0,0,0,0,.3l10.91,17.12a.76.76,0,0,1,.1.31c0,.2-.13.3-.4.3H139.6a.72.72,0,0,1-.61-.35L129.3,20.71a.16.16,0,0,0-.31,0l-9.68,15.22a.74.74,0,0,1-.62.35H116.8C116.59,36.28,116.46,36.23,116.41,36.11Z"/><path class="cls-1" d="M156.78,36.11a.6.6,0,0,1-.18-.44V1a.6.6,0,0,1,.18-.44.58.58,0,0,1,.43-.18h4.72a.58.58,0,0,1,.43.18.6.6,0,0,1,.18.44V35.67a.6.6,0,0,1-.18.44.57.57,0,0,1-.43.17h-4.72A.57.57,0,0,1,156.78,36.11Z"/><path class="cls-1" d="M188.51,35.82l-6.77-14.76a.32.32,0,0,0-.3-.2h-6.15c-.17,0-.26.08-.26.25V35.67a.6.6,0,0,1-.18.44.57.57,0,0,1-.43.17H169.7a.57.57,0,0,1-.43-.17.6.6,0,0,1-.18-.44V1a.6.6,0,0,1,.18-.44.58.58,0,0,1,.43-.18h14.09a11.45,11.45,0,0,1,5.54,1.31,9.29,9.29,0,0,1,3.74,3.69,11,11,0,0,1,1.33,5.46,9.89,9.89,0,0,1-1.82,6,9.43,9.43,0,0,1-5,3.46.17.17,0,0,0-.16.1.23.23,0,0,0,0,.2l7.23,14.92a.73.73,0,0,1,.1.3c0,.28-.19.41-.56.41h-4.92A.71.71,0,0,1,188.51,35.82ZM175,5.79V16a.23.23,0,0,0,.26.26H183a5.51,5.51,0,0,0,4-1.46,5.18,5.18,0,0,0,1.51-3.87A5.25,5.25,0,0,0,187,7a5.44,5.44,0,0,0-4-1.48h-7.68C175.12,5.54,175,5.62,175,5.79Z"/><path class="cls-1" d="M223.57.41h4.72a.58.58,0,0,1,.43.18.6.6,0,0,1,.18.44V35.67a.6.6,0,0,1-.18.44.57.57,0,0,1-.43.17h-4.72a.57.57,0,0,1-.43-.17.6.6,0,0,1-.18-.44V11.22a.2.2,0,0,0-.13-.2c-.09,0-.15,0-.18.1L216.24,21a.79.79,0,0,1-.71.41h-2.36a.79.79,0,0,1-.72-.41L206,11.17c0-.1-.09-.13-.18-.1a.21.21,0,0,0-.12.21V35.67a.6.6,0,0,1-.18.44.6.6,0,0,1-.44.17h-4.71a.6.6,0,0,1-.44-.17.6.6,0,0,1-.18-.44V1a.61.61,0,0,1,.62-.62h4.71a.81.81,0,0,1,.72.41l8.35,12.66a.29.29,0,0,0,.21.1.15.15,0,0,0,.15-.1L222.85.82A.82.82,0,0,1,223.57.41Z"/><path class="cls-1" d="M231.26,1.08a.17.17,0,0,1,0-.13V.47a.13.13,0,0,1,0-.12.15.15,0,0,1,.13-.06H235a.16.16,0,0,1,.13.06.13.13,0,0,1,.05.12V1a.17.17,0,0,1-.05.13.19.19,0,0,1-.13,0h-1.28s-.07,0-.07.08V5.36a.18.18,0,0,1-.06.13.17.17,0,0,1-.12,0h-.62a.17.17,0,0,1-.12,0,.18.18,0,0,1-.06-.13V1.21c0-.05,0-.08-.07-.08h-1.22A.17.17,0,0,1,231.26,1.08Zm8.27-.79h.64a.18.18,0,0,1,.13.06.17.17,0,0,1,0,.12V5.36a.17.17,0,0,1-.18.18h-.63a.17.17,0,0,1-.18-.18V2a.06.06,0,0,0,0-.06s0,0-.06,0l-.77,1.13a.24.24,0,0,1-.21.12h-.18a.24.24,0,0,1-.21-.12l-.79-1.13s0,0-.06,0A.06.06,0,0,0,237,2V5.36a.18.18,0,0,1-.06.13.17.17,0,0,1-.12,0h-.62a.18.18,0,0,1-.12,0,.17.17,0,0,1,0-.13V.47a.13.13,0,0,1,0-.12.16.16,0,0,1,.12-.06h.65a.24.24,0,0,1,.21.12L238.14,2l.06,0a.06.06,0,0,0,.06,0L239.32.41A.24.24,0,0,1,239.53.29Z"/></svg>